<svg width="24" height="20" viewBox="0 0 24 20" fill="none" xmlns="http://www.w3.org/2000/svg">
<path fill-rule="evenodd" clip-rule="evenodd" d="M0.800049 2C0.800049 1.57565 0.96862 1.16869 1.26868 0.868629C1.56874 0.568571 1.9757 0.4 2.40005 0.4H21.6C22.0244 0.4 22.4314 0.568571 22.7314 0.868629C23.0315 1.16869 23.2001 1.57565 23.2001 2C23.2001 2.42435 23.0315 2.83131 22.7314 3.13137C22.4314 3.43143 22.0244 3.6 21.6 3.6H2.40005C1.9757 3.6 1.56874 3.43143 1.26868 3.13137C0.96862 2.83131 0.800049 2.42435 0.800049 2ZM0.800049 10C0.800049 9.57565 0.96862 9.16869 1.26868 8.86863C1.56874 8.56857 1.9757 8.4 2.40005 8.4H21.6C22.0244 8.4 22.4314 8.56857 22.7314 8.86863C23.0315 9.16869 23.2001 9.57565 23.2001 10C23.2001 10.4243 23.0315 10.8313 22.7314 11.1314C22.4314 11.4314 22.0244 11.6 21.6 11.6H2.40005C1.9757 11.6 1.56874 11.4314 1.26868 11.1314C0.96862 10.8313 0.800049 10.4243 0.800049 10ZM10.4 18C10.4 17.5757 10.5686 17.1687 10.8687 16.8686C11.1687 16.5686 11.5757 16.4 12 16.4H21.6C22.0244 16.4 22.4314 16.5686 22.7314 16.8686C23.0315 17.1687 23.2001 17.5757 23.2001 18C23.2001 18.4243 23.0315 18.8313 22.7314 19.1314C22.4314 19.4314 22.0244 19.6 21.6 19.6H12C11.5757 19.6 11.1687 19.4314 10.8687 19.1314C10.5686 18.8313 10.4 18.4243 10.4 18Z" fill="#ECC753"/>
</svg>
